# xmcd
#
# Track frame offsets:
#	150
#	12552
#	25595
#	38325
#	51871
#	65547
#	78290
#	93573
#	106986
#	121405
#	134593
#	148060
#	161795
#	174354
#	188582
#	201784
#	215366
#	229015
#	242480
#	255392
#	268322
#	281236
#	294315
#	308126
#
# Disc length: 4301 seconds
# Revision: 1
# Processed by: cddbd v1.5.2PL0 Copyright (c) Steve Scherf et al.
# Submitted via: dBpowerAMP V12.0
#
DISCID=5610cb18
DTITLE=Memphis Slim - Blues At Midnight
DYEAR=2001
DGENRE=Blues
TTITLE0=Blues At Midnight
TTITLE1=Diggin' My Potatoes No. 2
TTITLE2=The Jive Blues
TTITLE3=Last Pair Of Shoes Blues
TTITLE4=Miss Ora Lee Blues
TTITLE5=Blue Evening Blues
TTITLE6=Beer Drinking Woman
TTITLE7=You Didn't Mean Me No Good
TTITLE8=Grinder Man Blues
TTITLE9=Empty Room Blues
TTITLE10=Shelby County Blues
TTITLE11=I See My Great Mistake
TTITLE12=Old Taylor
TTITLE13=I Believe I'll Settle Down
TTITLE14=Jasper's Gal
TTITLE15=You Got To Help Me Some
TTITLE16=Two Of A Kind
TTITLE17=Whiskey Store Blues
TTITLE18=Maybe I'll Loan You A Dime
TTITLE19=Me, Myself And I
TTITLE20=You Gonna Worry Too
TTITLE21=This Life I'm Living
TTITLE22=Caught The Old Coon At Last
TTITLE23=Lend Me Your Love
EXTD=
EXTT0=
EXTT1=
EXTT2=
EXTT3=
EXTT4=
EXTT5=
EXTT6=
EXTT7=
EXTT8=
EXTT9=
EXTT10=
EXTT11=
EXTT12=
EXTT13=
EXTT14=
EXTT15=
EXTT16=
EXTT17=
EXTT18=
EXTT19=
EXTT20=
EXTT21=
EXTT22=
EXTT23=
PLAYORDER=
